#Comment line ignore any data following # character 
#Hierarchical Translation and Rotation (.htr) file 
[Header]	
#Header keywords are followed by a single value 
FileType HTR		#Single word string
DataType HTRS		#Translation followed by rotation and scale data
FileVersion 1		#integer
NumSegments 84		#integer
NumFrames 2		#integer
DataFrameRate 30		#integer, data frame rate in this file
EulerRotationOrder ZYX
CalibrationUnits mm
RotationUnits Degrees
GlobalAxisofGravity Y
BoneLengthAxis Y
ScaleFactor 1.00
[SegmentNames&Hierarchy]
#CHILD	PARENT
MASTER GLOBAL
root MASTER
chest root
L_mid_tent01 root
R_mid_tent01 root
spine01 root
Bip01_Neck chest
L_humerus chest
R_humerus chest
weapon_bone chest
Bip01_Head Bip01_Neck
eye_left_bone Bip01_Head
eye_right_bone Bip01_Head
L_forearm L_humerus
L_front_hand L_forearm
L_weapon_bone L_forearm
L_front_hand01_01 L_front_hand
L_front_hand02_01 L_front_hand
L_front_hand03_01 L_front_hand
L_front_hand01_02 L_front_hand01_01
L_front_hand02_02 L_front_hand02_01
L_front_hand03_02 L_front_hand03_01
R_forearm R_humerus
R_front_hand R_forearm
R_weapon_bone R_forearm
R_front_hand01_01 R_front_hand
R_front_hand02_01 R_front_hand
R_front_hand03_01 R_front_hand
R_front_hand01_02 R_front_hand01_01
R_front_hand02_02 R_front_hand02_01
R_front_hand03_02 R_front_hand03_01
null_rope01_connect L_mid_tent01
Rope1_Seg01 null_rope01_connect
Rope1_Seg02 Rope1_Seg01
Rope1_Seg03 Rope1_Seg02
Rope1_Seg04 Rope1_Seg03
Rope1_Seg05 Rope1_Seg04
Rope1_Seg06 Rope1_Seg05
Rope1_Seg07 Rope1_Seg06
Rope1_Seg09 Rope1_Seg07
L_mid_hand01 Rope1_Seg09
L_mid_hand02 Rope1_Seg09
L_mid_hand03 Rope1_Seg09
null_rope02_connect R_mid_tent01
Rope2_Seg01 null_rope02_connect
Rope2_Seg02 Rope2_Seg01
Rope2_Seg03 Rope2_Seg02
Rope2_Seg04 Rope2_Seg03
Rope2_Seg05 Rope2_Seg04
Rope2_Seg06 Rope2_Seg05
Rope2_Seg07 Rope2_Seg06
Rope2_Seg09 Rope2_Seg07
R_mid_hand01 Rope2_Seg09
R_mid_hand02 Rope2_Seg09
R_mid_hand03 Rope2_Seg09
spine02 spine01
spine03 spine02
pelvis spine03
null_rope03_connect pelvis
null_rope04_connect pelvis
Rope3_Seg01 null_rope03_connect
Rope3_Seg02 Rope3_Seg01
Rope3_Seg03 Rope3_Seg02
Rope3_Seg04 Rope3_Seg03
Rope3_Seg05 Rope3_Seg04
Rope3_Seg06 Rope3_Seg05
Rope3_Seg07 Rope3_Seg06
Rope3_Seg08 Rope3_Seg07
Rope3_Seg09 Rope3_Seg08
R_rear_hand01 Rope3_Seg09
R_rear_hand02 Rope3_Seg09
R_rear_hand03 Rope3_Seg09
Rope4_Seg01 null_rope04_connect
Rope4_Seg02 Rope4_Seg01
Rope4_Seg03 Rope4_Seg02
Rope4_Seg04 Rope4_Seg03
Rope4_Seg05 Rope4_Seg04
Rope4_Seg06 Rope4_Seg05
Rope4_Seg07 Rope4_Seg06
Rope4_Seg08 Rope4_Seg07
Rope4_Seg09 Rope4_Seg08
L_rear_hand01 Rope4_Seg09
L_rear_hand02 Rope4_Seg09
L_rear_hand03 Rope4_Seg09
[BasePosition]
#SegmentName Tx, Ty, Tz, Rx, Ry, Rz, BoneLength
MASTER 0.000000 0.000000 0.000000 -90.000000 0.000000 0.000000 10.000000 
root 0.000000 0.000000 0.000000 0.000000 0.000000 0.000000 10.000000 
chest 0.000000 0.000000 0.000000 0.000000 0.000000 0.000000 10.000000 
L_mid_tent01 0.000000 0.000000 0.000000 0.000000 0.000000 0.000000 10.000000 
R_mid_tent01 0.000000 0.000000 0.000000 0.000000 0.000000 0.000000 10.000000 
spine01 0.000000 0.000000 0.000000 0.000000 0.000000 0.000000 10.000000 
Bip01_Neck 0.000000 0.000000 0.000000 0.000000 0.000000 0.000000 10.000000 
L_humerus 0.000000 0.000000 0.000000 0.000000 0.000000 0.000000 10.000000 
R_humerus 0.000000 0.000000 0.000000 0.000000 0.000000 0.000000 10.000000 
weapon_bone 0.000000 0.000000 0.000000 0.000000 0.000000 0.000000 10.000000 
Bip01_Head 0.000000 0.000000 0.000000 0.000000 0.000000 0.000000 10.000000 
eye_left_bone 0.000000 0.000000 0.000000 0.000000 0.000000 0.000000 10.000000 
eye_right_bone 0.000000 0.000000 0.000000 0.000000 0.000000 0.000000 10.000000 
L_forearm 0.000000 0.000000 0.000000 0.000000 0.000000 0.000000 10.000000 
L_front_hand 0.000000 0.000000 0.000000 0.000000 0.000000 0.000000 10.000000 
L_weapon_bone 0.000000 0.000000 0.000000 0.000000 0.000000 0.000000 10.000000 
L_front_hand01_01 0.000000 0.000000 0.000000 0.000000 0.000000 0.000000 10.000000 
L_front_hand02_01 0.000000 0.000000 0.000000 0.000000 0.000000 0.000000 10.000000 
L_front_hand03_01 0.000000 0.000000 0.000000 0.000000 0.000000 0.000000 10.000000 
L_front_hand01_02 0.000000 0.000000 0.000000 0.000000 0.000000 0.000000 10.000000 
L_front_hand02_02 0.000000 0.000000 0.000000 0.000000 0.000000 0.000000 10.000000 
L_front_hand03_02 0.000000 0.000000 0.000000 0.000000 0.000000 0.000000 10.000000 
R_forearm 0.000000 0.000000 0.000000 0.000000 0.000000 0.000000 10.000000 
R_front_hand 0.000000 0.000000 0.000000 0.000000 0.000000 0.000000 10.000000 
R_weapon_bone 0.000000 0.000000 0.000000 0.000000 0.000000 0.000000 10.000000 
R_front_hand01_01 0.000000 0.000000 0.000000 0.000000 0.000000 0.000000 10.000000 
R_front_hand02_01 0.000000 0.000000 0.000000 0.000000 0.000000 0.000000 10.000000 
R_front_hand03_01 0.000000 0.000000 0.000000 0.000000 0.000000 0.000000 10.000000 
R_front_hand01_02 0.000000 0.000000 0.000000 0.000000 0.000000 0.000000 10.000000 
R_front_hand02_02 0.000000 0.000000 0.000000 0.000000 0.000000 0.000000 10.000000 
R_front_hand03_02 0.000000 0.000000 0.000000 0.000000 0.000000 0.000000 10.000000 
null_rope01_connect 0.000000 0.000000 0.000000 0.000000 0.000000 0.000000 10.000000 
Rope1_Seg01 0.000000 0.000000 0.000000 0.000000 0.000000 0.000000 10.000000 
Rope1_Seg02 0.000000 0.000000 0.000000 0.000000 0.000000 0.000000 10.000000 
Rope1_Seg03 0.000000 0.000000 0.000000 0.000000 0.000000 0.000000 10.000000 
Rope1_Seg04 0.000000 0.000000 0.000000 0.000000 0.000000 0.000000 10.000000 
Rope1_Seg05 0.000000 0.000000 0.000000 0.000000 0.000000 0.000000 10.000000 
Rope1_Seg06 0.000000 0.000000 0.000000 0.000000 0.000000 0.000000 10.000000 
Rope1_Seg07 0.000000 0.000000 0.000000 0.000000 0.000000 0.000000 10.000000 
Rope1_Seg09 0.000000 0.000000 0.000000 0.000000 0.000000 0.000000 10.000000 
L_mid_hand01 0.000000 0.000000 0.000000 0.000000 0.000000 0.000000 10.000000 
L_mid_hand02 0.000000 0.000000 0.000000 0.000000 0.000000 0.000000 10.000000 
L_mid_hand03 0.000000 0.000000 0.000000 0.000000 0.000000 0.000000 10.000000 
null_rope02_connect 0.000000 0.000000 0.000000 0.000000 0.000000 0.000000 10.000000 
Rope2_Seg01 0.000000 0.000000 0.000000 0.000000 0.000000 0.000000 10.000000 
Rope2_Seg02 0.000000 0.000000 0.000000 0.000000 0.000000 0.000000 10.000000 
Rope2_Seg03 0.000000 0.000000 0.000000 0.000000 0.000000 0.000000 10.000000 
Rope2_Seg04 0.000000 0.000000 0.000000 0.000000 0.000000 0.000000 10.000000 
Rope2_Seg05 0.000000 0.000000 0.000000 0.000000 0.000000 0.000000 10.000000 
Rope2_Seg06 0.000000 0.000000 0.000000 0.000000 0.000000 0.000000 10.000000 
Rope2_Seg07 0.000000 0.000000 0.000000 0.000000 0.000000 0.000000 10.000000 
Rope2_Seg09 0.000000 0.000000 0.000000 0.000000 0.000000 0.000000 10.000000 
R_mid_hand01 0.000000 0.000000 0.000000 0.000000 0.000000 0.000000 10.000000 
R_mid_hand02 0.000000 0.000000 0.000000 0.000000 0.000000 0.000000 10.000000 
R_mid_hand03 0.000000 0.000000 0.000000 0.000000 0.000000 0.000000 10.000000 
spine02 0.000000 0.000000 0.000000 0.000000 0.000000 0.000000 10.000000 
spine03 0.000000 0.000000 0.000000 0.000000 0.000000 0.000000 10.000000 
pelvis 0.000000 0.000000 0.000000 0.000000 0.000000 0.000000 10.000000 
null_rope03_connect 0.000000 0.000000 0.000000 0.000000 0.000000 0.000000 10.000000 
null_rope04_connect 0.000000 0.000000 0.000000 0.000000 0.000000 0.000000 10.000000 
Rope3_Seg01 0.000000 0.000000 0.000000 0.000000 0.000000 0.000000 10.000000 
Rope3_Seg02 0.000000 0.000000 0.000000 0.000000 0.000000 0.000000 10.000000 
Rope3_Seg03 0.000000 0.000000 0.000000 0.000000 0.000000 0.000000 10.000000 
Rope3_Seg04 0.000000 0.000000 0.000000 0.000000 0.000000 0.000000 10.000000 
Rope3_Seg05 0.000000 0.000000 0.000000 0.000000 0.000000 0.000000 10.000000 
Rope3_Seg06 0.000000 0.000000 0.000000 0.000000 0.000000 0.000000 10.000000 
Rope3_Seg07 0.000000 0.000000 0.000000 0.000000 0.000000 0.000000 10.000000 
Rope3_Seg08 0.000000 0.000000 0.000000 0.000000 0.000000 0.000000 10.000000 
Rope3_Seg09 0.000000 0.000000 0.000000 0.000000 0.000000 0.000000 10.000000 
R_rear_hand01 0.000000 0.000000 0.000000 0.000000 0.000000 0.000000 10.000000 
R_rear_hand02 0.000000 0.000000 0.000000 0.000000 0.000000 0.000000 10.000000 
R_rear_hand03 0.000000 0.000000 0.000000 0.000000 0.000000 0.000000 10.000000 
Rope4_Seg01 0.000000 0.000000 0.000000 0.000000 0.000000 0.000000 10.000000 
Rope4_Seg02 0.000000 0.000000 0.000000 0.000000 0.000000 0.000000 10.000000 
Rope4_Seg03 0.000000 0.000000 0.000000 0.000000 0.000000 0.000000 10.000000 
Rope4_Seg04 0.000000 0.000000 0.000000 0.000000 0.000000 0.000000 10.000000 
Rope4_Seg05 0.000000 0.000000 0.000000 0.000000 0.000000 0.000000 10.000000 
Rope4_Seg06 0.000000 0.000000 0.000000 0.000000 0.000000 0.000000 10.000000 
Rope4_Seg07 0.000000 0.000000 0.000000 0.000000 0.000000 0.000000 10.000000 
Rope4_Seg08 0.000000 0.000000 0.000000 0.000000 0.000000 0.000000 10.000000 
Rope4_Seg09 0.000000 0.000000 0.000000 0.000000 0.000000 0.000000 10.000000 
L_rear_hand01 0.000000 0.000000 0.000000 0.000000 0.000000 0.000000 10.000000 
L_rear_hand02 0.000000 0.000000 0.000000 0.000000 0.000000 0.000000 10.000000 
L_rear_hand03 0.000000 0.000000 0.000000 0.000000 0.000000 0.000000 10.000000 
#Beginning of Data. Separated by tabs
#Fr	Tx	Ty	Tz	Rx	Ry	Rz	SF
[MASTER]
12 0.000000 0.000000 0.000000 0.001660 0.001660 0.001660 0.000000
13 0.000000 0.000000 0.000000 0.001660 0.001660 0.001660 0.000000
[root]
12 -24.784912 -23.434963 876.904663 -89.498077 -40.087635 -89.684120 877.567810
13 -27.869307 -16.604326 926.806091 -89.405624 -38.368999 -89.351151 927.373657
[chest]
12 -84.512650 -34.090519 0.000000 1.831924 -1.828491 -131.595795 91.129311
13 -84.512650 -34.090519 0.000000 1.711097 -1.699211 -133.565918 91.129311
[L_mid_tent01]
12 27.356194 22.145092 -250.279663 -12.967870 -7.969539 52.177361 252.742310
13 27.353825 22.146460 -250.264282 -12.297043 -5.371212 50.948372 252.726944
[R_mid_tent01]
12 23.228794 24.509907 226.238495 -171.654297 0.820228 54.553074 228.744751
13 23.228794 24.509907 226.238495 -172.187653 -2.332124 53.601456 228.744751
[spine01]
12 -0.361383 -0.195265 0.000000 0.001937 0.001326 21.205948 0.410763
13 -0.361383 -0.195265 0.000000 0.001935 0.001329 21.017319 0.410763
[Bip01_Neck]
12 165.484543 71.581718 0.000119 175.896118 1.177290 24.871183 180.302734
13 165.484543 71.581718 0.000119 175.896118 1.177290 24.871181 180.302734
[L_humerus]
12 -13.983130 -135.272980 -120.471481 -84.659637 -4.359030 -78.564987 181.680161
13 -13.983130 -135.272980 -120.471481 -84.659981 -4.358987 -78.565002 181.680161
[R_humerus]
12 -13.983309 -135.273102 125.287651 91.418007 -1.587479 -71.086365 184.909012
13 -13.983309 -135.273102 125.287651 91.418266 -1.587519 -71.086403 184.909012
[weapon_bone]
12 235.964890 -300.705902 0.000000 0.000000 -89.951546 -128.212341 382.234833
13 235.964890 -300.705902 0.000000 0.000000 -89.951546 -128.212341 382.234833
[Bip01_Head]
12 102.819809 23.735525 5.410324 3.150732 3.423701 -20.839092 105.662476
13 102.819809 23.735535 5.410318 3.150731 3.423701 -20.839088 105.662483
[eye_left_bone]
12 -24.626970 125.451866 -64.772606 0.000000 -90.000000 -99.840431 143.318359
13 -24.626970 125.451866 -64.772606 0.000000 -90.000000 -99.840431 143.318359
[eye_right_bone]
12 -24.626970 125.451866 64.327362 0.000000 -89.960434 80.159386 143.117676
13 -24.626970 125.451866 64.327362 0.000000 -89.960434 80.159386 143.117676
[L_forearm]
12 322.776093 0.000000 -0.000119 0.000017 0.002347 -89.149834 322.776093
13 322.776093 0.000000 -0.000119 0.000017 0.002347 -89.149834 322.776093
[L_front_hand]
12 241.149185 -0.042021 -3.300071 -177.741409 0.229304 -87.197647 241.171753
13 241.149185 -0.042021 -3.300071 -177.752975 0.314320 -89.381355 241.171753
[L_weapon_bone]
12 155.189804 7.161924 0.000830 0.002104 0.001041 37.330715 155.354965
13 155.053360 8.144739 0.000877 0.002096 0.001056 36.512112 155.267120
[L_front_hand01_01]
12 86.095154 20.947098 -0.655860 0.405585 -0.442306 -4.620490 88.609184
13 86.095154 20.947098 -0.655860 0.405585 -0.442306 -4.620490 88.609184
[L_front_hand02_01]
12 86.935165 -11.437475 24.513514 116.959450 3.630817 1.495453 91.046425
13 86.935165 -11.437475 24.513514 116.959465 3.630818 1.495453 91.046425
[L_front_hand03_01]
12 86.637497 -14.123976 -20.424902 -118.420097 -4.656303 -0.152527 90.126129
13 86.637497 -14.123976 -20.424902 -118.420097 -4.656303 -0.152527 90.126129
[L_front_hand01_02]
12 71.020905 -0.000179 0.000030 0.000004 -0.000005 -8.379269 71.020905
13 71.020905 -0.000179 0.000030 0.000004 -0.000005 -8.379269 71.020905
[L_front_hand02_02]
12 71.020927 -0.000119 0.000060 -0.000005 -0.000004 -8.379259 71.020927
13 71.020927 -0.000119 0.000060 -0.000005 -0.000004 -8.379259 71.020927
[L_front_hand03_02]
12 71.020905 -0.000060 0.000060 0.000015 -0.000040 -8.379267 71.020905
13 71.020905 -0.000060 0.000060 0.000015 -0.000040 -8.379267 71.020905
[R_forearm]
12 322.776428 -0.000060 0.000030 0.213262 0.005378 -92.271530 322.776428
13 322.776428 -0.000060 0.000030 0.213267 0.005161 -92.154877 322.776428
[R_front_hand]
12 238.847015 -0.006795 2.210259 -1.701393 -0.302984 -88.784401 238.857239
13 238.847015 -0.006795 2.210259 -1.701723 -0.302579 -88.778755 238.857239
[R_weapon_bone]
12 155.664093 0.002503 -0.000030 0.003304 0.001622 -105.890923 155.664078
13 155.664093 0.002503 -0.000030 0.003283 0.001664 -107.358780 155.664078
[R_front_hand01_01]
12 87.624611 14.231146 22.918642 -116.960213 3.496675 -1.324139 91.683487
13 87.624611 14.231146 22.918642 -116.960213 3.496675 -1.324138 91.683487
[R_front_hand02_01]
12 89.356956 14.367283 -19.491137 118.419647 -4.257089 0.609827 92.579636
13 89.356956 14.367283 -19.491137 118.419647 -4.257089 0.609827 92.579636
[R_front_hand03_01]
12 87.286232 -22.307278 -0.143439 -0.387970 -0.231462 4.232001 90.091743
13 87.286232 -22.307278 -0.143439 -0.387970 -0.231462 4.232001 90.091743
[R_front_hand01_02]
12 71.020905 0.000060 0.000119 -0.000005 -0.000020 8.379271 71.020905
13 71.020905 0.000060 0.000119 -0.000005 -0.000020 8.379271 71.020905
[R_front_hand02_02]
12 71.020844 -0.000030 -0.000119 0.000000 -0.000021 8.379271 71.020836
13 71.020844 -0.000030 -0.000119 0.000000 -0.000021 8.379271 71.020836
[R_front_hand03_02]
12 71.020905 0.000000 0.000030 -0.000001 -0.000020 8.379275 71.020905
13 71.020905 0.000000 0.000030 -0.000001 -0.000020 8.379275 71.020905
[null_rope01_connect]
12 328.732483 0.000000 -0.000238 134.187576 -74.640442 -55.271290 328.732483
13 328.732483 0.000000 -0.000238 139.647430 -76.331108 -61.521801 328.732483
[Rope1_Seg01]
12 0.000052 -0.000064 0.000048 95.243103 -32.505489 -170.891632 0.000096
13 0.000050 -0.000063 0.000052 96.067032 -29.879335 -171.286987 0.000096
[Rope1_Seg02]
12 139.999863 -0.000179 0.000000 1.366405 -5.591097 -1.580401 139.999863
13 139.999863 -0.000179 0.000000 1.831295 -6.868019 -1.916970 139.999863
[Rope1_Seg03]
12 139.999924 0.000060 -0.000060 2.611742 -14.617020 -3.855081 139.999924
13 139.999924 0.000060 -0.000060 3.936971 -21.156721 -5.905643 139.999924
[Rope1_Seg04]
12 139.999924 -0.000060 -0.000119 26.050121 -59.809589 -53.474617 139.999924
13 139.999924 -0.000060 -0.000119 25.940477 -61.983696 -56.776142 139.999924
[Rope1_Seg05]
12 139.999832 0.000119 -0.000060 -10.723857 -28.003185 7.352415 139.999832
13 139.999832 0.000119 -0.000060 -4.708262 -19.749212 21.697014 139.999832
[Rope1_Seg06]
12 139.999954 0.000119 -0.000060 79.305153 -12.769334 58.861362 139.999954
13 139.999954 0.000119 -0.000060 75.025375 -9.256861 47.074043 139.999954
[Rope1_Seg07]
12 139.999985 0.000060 0.000000 28.159204 13.108620 7.485034 139.999985
13 139.999985 0.000060 0.000000 27.268152 9.829220 7.014263 139.999985
[Rope1_Seg09]
12 121.602913 0.000119 -0.000089 -89.793175 -1.359789 0.847147 121.602913
13 121.602913 0.000119 -0.000089 -89.793175 -1.359789 0.847147 121.602913
[L_mid_hand01]
12 103.859421 1.038730 8.195221 104.352036 0.341479 -0.444583 104.187431
13 103.859421 1.038730 8.195221 104.352036 0.341479 -0.444584 104.187431
[L_mid_hand02]
12 105.572853 -4.139662 -10.864139 -135.608444 3.905687 -3.381056 106.211075
13 105.572853 -4.139662 -10.864139 -135.608444 3.905687 -3.381056 106.211075
[L_mid_hand03]
12 104.641464 17.579376 -3.913581 -18.761515 -0.324361 2.942912 106.179977
13 104.641464 17.579376 -3.913581 -18.761518 -0.324361 2.942912 106.179977
[null_rope02_connect]
12 328.732849 0.000179 -0.000119 164.836060 81.436867 -90.701950 328.732849
13 328.732849 0.000179 -0.000119 -172.081970 81.301575 -66.619659 328.732849
[Rope2_Seg01]
12 0.000141 0.000114 -0.000048 -15.410167 -34.465717 -5.270658 0.000188
13 0.000140 0.000114 -0.000052 -15.722863 -32.257221 -5.736926 0.000188
[Rope2_Seg02]
12 139.999741 -0.000060 -0.000119 -2.319190 1.171448 4.951222 139.999756
13 139.999741 -0.000060 -0.000119 -3.077111 1.439165 6.106264 139.999756
[Rope2_Seg03]
12 140.000107 0.000030 0.000000 -4.916069 2.353513 12.288177 140.000107
13 140.000107 0.000030 0.000000 -7.122236 3.163096 17.698500 140.000107
[Rope2_Seg04]
12 139.999802 0.000000 -0.000060 -3.497294 18.449947 72.211990 139.999802
13 139.999802 0.000000 -0.000060 -1.172791 16.449810 78.395477 139.999802
[Rope2_Seg05]
12 139.999985 -0.000060 0.000119 -2.878113 -25.640396 21.079369 139.999985
13 139.999985 -0.000060 0.000119 -5.498012 -34.020145 4.050926 139.999985
[Rope2_Seg06]
12 139.999893 -0.000030 -0.000119 -30.989508 -46.814640 -37.997334 139.999893
13 139.999893 -0.000030 -0.000119 -31.531322 -36.808987 -27.038395 139.999893
[Rope2_Seg07]
12 139.999893 0.000060 -0.000060 -10.038890 -4.375297 -9.971968 139.999893
13 139.999893 0.000060 -0.000060 -9.951395 -4.662484 -8.160806 139.999893
[Rope2_Seg09]
12 121.338966 0.000089 -0.000060 33.793236 -1.359788 -0.847141 121.338966
13 121.338966 0.000089 -0.000060 33.793236 -1.359788 -0.847141 121.338966
[R_mid_hand01]
12 104.680779 11.144459 -10.335981 -47.384243 2.963521 5.452602 105.778534
13 104.680779 11.144459 -10.335981 -47.384262 2.963522 5.452605 105.778534
[R_mid_hand02]
12 104.070427 2.443552 8.231699 75.626289 -2.250001 1.111093 104.424065
13 104.070427 2.443552 8.231699 75.626297 -2.250001 1.111093 104.424065
[R_mid_hand03]
12 106.028137 -11.221827 -5.996406 -164.381912 2.495983 -6.140520 106.788818
13 106.028137 -11.221827 -5.996406 -164.381927 2.495984 -6.140522 106.788818
[spine02]
12 129.756927 0.001550 0.000119 -1.578148 -3.804901 14.732986 129.756927
13 129.756927 0.001550 0.000119 -1.500422 -3.825251 13.578715 129.756927
[spine03]
12 79.026382 0.015515 -0.872400 -0.498125 4.851060 -14.896850 79.031204
13 79.012375 0.017971 -1.009305 -0.570822 4.777329 -15.898194 79.018822
[pelvis]
12 169.435242 0.051022 0.000000 -6.034751 -2.633703 11.543289 169.435257
13 169.435242 0.051022 0.000000 -5.822274 -2.577566 11.086374 169.435257
[null_rope03_connect]
12 -1.257226 -2.466202 137.391083 168.341812 -83.183151 -70.661072 137.418976
13 -1.257226 -2.466202 137.391083 164.917511 -83.421448 -66.145134 137.418976
[null_rope04_connect]
12 -1.259640 -2.480268 -137.844437 168.341812 -83.183151 -70.661072 137.872513
13 -1.259640 -2.480268 -137.844437 164.917511 -83.421448 -66.145134 137.872513
[Rope3_Seg01]
12 -0.000045 0.000066 -0.000007 -129.063797 -37.396126 -85.878006 0.000080
13 -0.000044 0.000062 -0.000006 -129.350098 -39.621544 -85.652550 0.000077
[Rope3_Seg02]
12 139.999924 -0.000119 0.000060 -3.229633 12.647532 -13.717397 139.999924
13 139.999924 -0.000119 0.000060 -2.392424 9.623328 -10.993050 139.999924
[Rope3_Seg03]
12 139.999924 -0.000119 0.000119 -10.345233 22.916512 -23.435177 139.999924
13 139.999924 -0.000119 0.000119 -7.874494 17.850349 -19.590189 139.999924
[Rope3_Seg04]
12 139.999924 0.000119 0.000000 -7.059477 18.581898 -13.751831 139.999924
13 139.999924 0.000119 0.000000 -8.529571 19.377941 -15.609544 139.999924
[Rope3_Seg05]
12 139.999924 -0.000238 0.000060 -10.266308 21.144474 -19.974234 139.999924
13 139.999924 -0.000238 0.000060 -8.809113 17.874863 -16.619455 139.999924
[Rope3_Seg06]
12 139.999893 -0.000119 -0.000060 -12.736211 25.187662 -21.264555 139.999893
13 139.999893 -0.000119 -0.000060 -13.602221 23.548321 -21.761223 139.999893
[Rope3_Seg07]
12 139.999771 0.000060 -0.000119 -2.868206 10.642132 -5.762974 139.999771
13 139.999771 0.000060 -0.000119 -4.960015 13.557344 -8.036293 139.999771
[Rope3_Seg08]
12 139.999985 -0.000060 0.000000 -0.707112 4.881119 -2.340417 139.999985
13 139.999985 -0.000060 0.000000 -1.334153 6.046701 -2.872444 139.999985
[Rope3_Seg09]
12 90.185997 -0.000179 -0.000060 89.793228 -1.359877 -0.847183 90.185997
13 90.185997 -0.000179 -0.000060 89.793228 -1.359877 -0.847183 90.185997
[R_rear_hand01]
12 103.366196 -6.073594 -10.757982 -156.049316 6.070419 -2.795869 104.101845
13 103.366196 -6.073594 -10.757982 -156.049316 6.070419 -2.795869 104.101845
[R_rear_hand02]
12 100.509819 12.039542 -7.992327 -38.708424 1.958050 5.461185 101.543350
13 100.509819 12.039542 -7.992327 -38.708427 1.958051 5.461186 101.543350
[R_rear_hand03]
12 101.539970 5.215704 5.435467 84.307625 -2.361032 4.099037 101.819031
13 101.539970 5.215704 5.435467 84.307625 -2.361032 4.099037 101.819031
[Rope4_Seg01]
12 -0.000009 0.000016 -0.000100 37.112839 -20.602823 -75.547493 0.000102
13 -0.000010 0.000011 -0.000102 34.742954 -27.320469 -74.492020 0.000103
[Rope4_Seg02]
12 139.999985 0.000060 0.000119 -14.856553 -41.397633 31.753609 139.999985
13 139.999985 0.000060 0.000119 -6.504303 -31.796907 15.862905 139.999985
[Rope4_Seg03]
12 139.999924 0.000000 -0.000238 8.767850 -36.537708 17.257872 139.999924
13 139.999924 0.000000 -0.000238 9.779554 -45.817509 17.876228 139.999924
[Rope4_Seg04]
12 139.999985 0.000000 0.000119 9.041265 -9.226957 10.547092 139.999985
13 139.999985 0.000000 0.000119 13.124406 -13.348310 10.766923 139.999985
[Rope4_Seg05]
12 139.999802 -0.000060 -0.000119 14.738898 -8.807828 24.111176 139.999802
13 139.999802 -0.000060 -0.000119 17.409809 -7.017622 22.013964 139.999802
[Rope4_Seg06]
12 139.999924 0.000000 0.000060 10.836109 -1.379214 30.593565 139.999924
13 139.999924 0.000000 0.000060 13.156446 1.892668 29.871874 139.999924
[Rope4_Seg07]
12 139.999802 0.000000 0.000000 2.170847 1.287786 11.596705 139.999802
13 139.999802 0.000000 0.000000 2.747162 2.888759 12.148294 139.999802
[Rope4_Seg08]
12 139.999924 0.000000 0.000119 -0.902759 0.833866 5.685297 139.999924
13 139.999924 0.000000 0.000119 -0.778355 1.615860 5.790218 139.999924
[Rope4_Seg09]
12 90.185791 0.000060 0.000060 -135.617828 2.228885 0.850567 90.185791
13 90.185791 0.000060 0.000060 -135.617828 2.228885 0.850567 90.185791
[L_rear_hand01]
12 101.696655 -8.392275 -7.654577 -38.746338 0.246096 177.290207 102.329041
13 101.696655 -8.392275 -7.654577 -38.746349 0.246096 177.290207 102.329041
[L_rear_hand02]
12 102.726799 -1.568258 5.773216 84.315155 -1.142796 176.247437 102.900848
13 102.726799 -1.568258 5.773216 84.315163 -1.142796 176.247437 102.900848
[L_rear_hand03]
12 104.552910 9.721220 -10.420293 -155.747955 -4.630845 179.564758 105.519653
13 104.552910 9.721220 -10.420293 -155.747955 -4.630845 179.564758 105.519653
